<mxfile host="65bd71144e">
    <diagram id="9bZorzMKgHyVODvnefC2" name="Page-1">
        <mxGraphModel dx="961" dy="436" grid="1" gridSize="10" guides="1" tooltips="1" connect="1" arrows="1" fold="1" page="1" pageScale="1" pageWidth="1100" pageHeight="850" math="0" shadow="0">
            <root>
                <mxCell id="0"/>
                <mxCell id="1" parent="0"/>
                <mxCell id="5_YgtmY0Rdwz8p-4PcOd-1" value="User" style="swimlane;fontStyle=0;childLayout=stackLayout;horizontal=1;startSize=26;fillColor=none;horizontalStack=0;resizeParent=1;resizeParentMax=0;resizeLast=0;collapsible=1;marginBottom=0;" vertex="1" parent="1">
                    <mxGeometry x="80" y="60" width="140" height="180" as="geometry"/>
                </mxCell>
                <mxCell id="5_YgtmY0Rdwz8p-4PcOd-2" value="+ email, string&#10;+ password, string&#10;+ pseudo, string" style="text;strokeColor=none;fillColor=none;align=left;verticalAlign=top;spacingLeft=4;spacingRight=4;overflow=hidden;rotatable=0;points=[[0,0.5],[1,0.5]];portConstraint=eastwest;" vertex="1" parent="5_YgtmY0Rdwz8p-4PcOd-1">
                    <mxGeometry y="26" width="140" height="154" as="geometry"/>
                </mxCell>
                <mxCell id="5_YgtmY0Rdwz8p-4PcOd-5" value="UserBook" style="swimlane;fontStyle=0;childLayout=stackLayout;horizontal=1;startSize=26;fillColor=none;horizontalStack=0;resizeParent=1;resizeParentMax=0;resizeLast=0;collapsible=1;marginBottom=0;" vertex="1" parent="1">
                    <mxGeometry x="280" y="60" width="140" height="180" as="geometry"/>
                </mxCell>
                <mxCell id="5_YgtmY0Rdwz8p-4PcOd-6" value="+ createdAt, datetime&#10;+ updatedAt, datetime&#10;+ comment, text&#10;+ rating, interger" style="text;strokeColor=none;fillColor=none;align=left;verticalAlign=top;spacingLeft=4;spacingRight=4;overflow=hidden;rotatable=0;points=[[0,0.5],[1,0.5]];portConstraint=eastwest;" vertex="1" parent="5_YgtmY0Rdwz8p-4PcOd-5">
                    <mxGeometry y="26" width="140" height="154" as="geometry"/>
                </mxCell>
                <mxCell id="5_YgtmY0Rdwz8p-4PcOd-24" style="edgeStyle=none;html=1;exitX=0.5;exitY=0;exitDx=0;exitDy=0;entryX=0.503;entryY=1.01;entryDx=0;entryDy=0;entryPerimeter=0;fontSize=8;endArrow=none;endFill=0;" edge="1" parent="1" source="5_YgtmY0Rdwz8p-4PcOd-7" target="5_YgtmY0Rdwz8p-4PcOd-6">
                    <mxGeometry relative="1" as="geometry"/>
                </mxCell>
                <mxCell id="5_YgtmY0Rdwz8p-4PcOd-7" value="Status" style="swimlane;fontStyle=0;childLayout=stackLayout;horizontal=1;startSize=26;fillColor=none;horizontalStack=0;resizeParent=1;resizeParentMax=0;resizeLast=0;collapsible=1;marginBottom=0;" vertex="1" parent="1">
                    <mxGeometry x="280" y="280" width="140" height="180" as="geometry"/>
                </mxCell>
                <mxCell id="5_YgtmY0Rdwz8p-4PcOd-8" value="+ name, string" style="text;strokeColor=none;fillColor=none;align=left;verticalAlign=top;spacingLeft=4;spacingRight=4;overflow=hidden;rotatable=0;points=[[0,0.5],[1,0.5]];portConstraint=eastwest;" vertex="1" parent="5_YgtmY0Rdwz8p-4PcOd-7">
                    <mxGeometry y="26" width="140" height="154" as="geometry"/>
                </mxCell>
                <mxCell id="5_YgtmY0Rdwz8p-4PcOd-9" value="Book" style="swimlane;fontStyle=0;childLayout=stackLayout;horizontal=1;startSize=26;fillColor=none;horizontalStack=0;resizeParent=1;resizeParentMax=0;resizeLast=0;collapsible=1;marginBottom=0;" vertex="1" parent="1">
                    <mxGeometry x="480" y="60" width="140" height="180" as="geometry"/>
                </mxCell>
                <mxCell id="5_YgtmY0Rdwz8p-4PcOd-10" value="+ googleBooksId: string&#10;+ title: text&#10;+ subtitle: text&#10;+ publishDate: date&#10;+ description: text&#10;+ isbn10: string&#10;+ isbn13: string&#10;+ pageCount: int&#10;+ smallThumbnail: string&#10;+ thumbnail: string" style="text;strokeColor=none;fillColor=none;align=left;verticalAlign=top;spacingLeft=4;spacingRight=4;overflow=hidden;rotatable=0;points=[[0,0.5],[1,0.5]];portConstraint=eastwest;" vertex="1" parent="5_YgtmY0Rdwz8p-4PcOd-9">
                    <mxGeometry y="26" width="140" height="154" as="geometry"/>
                </mxCell>
                <mxCell id="5_YgtmY0Rdwz8p-4PcOd-11" value="Author" style="swimlane;fontStyle=0;childLayout=stackLayout;horizontal=1;startSize=26;fillColor=none;horizontalStack=0;resizeParent=1;resizeParentMax=0;resizeLast=0;collapsible=1;marginBottom=0;" vertex="1" parent="1">
                    <mxGeometry x="680" y="60" width="140" height="180" as="geometry"/>
                </mxCell>
                <mxCell id="5_YgtmY0Rdwz8p-4PcOd-12" value="+ name, string" style="text;strokeColor=none;fillColor=none;align=left;verticalAlign=top;spacingLeft=4;spacingRight=4;overflow=hidden;rotatable=0;points=[[0,0.5],[1,0.5]];portConstraint=eastwest;" vertex="1" parent="5_YgtmY0Rdwz8p-4PcOd-11">
                    <mxGeometry y="26" width="140" height="154" as="geometry"/>
                </mxCell>
                <mxCell id="5_YgtmY0Rdwz8p-4PcOd-13" value="Publisher" style="swimlane;fontStyle=0;childLayout=stackLayout;horizontal=1;startSize=26;fillColor=none;horizontalStack=0;resizeParent=1;resizeParentMax=0;resizeLast=0;collapsible=1;marginBottom=0;" vertex="1" parent="1">
                    <mxGeometry x="680" y="280" width="140" height="180" as="geometry"/>
                </mxCell>
                <mxCell id="5_YgtmY0Rdwz8p-4PcOd-14" value="+ name, string" style="text;strokeColor=none;fillColor=none;align=left;verticalAlign=top;spacingLeft=4;spacingRight=4;overflow=hidden;rotatable=0;points=[[0,0.5],[1,0.5]];portConstraint=eastwest;" vertex="1" parent="5_YgtmY0Rdwz8p-4PcOd-13">
                    <mxGeometry y="26" width="140" height="154" as="geometry"/>
                </mxCell>
                <mxCell id="5_YgtmY0Rdwz8p-4PcOd-16" style="edgeStyle=none;html=1;exitX=1;exitY=0.5;exitDx=0;exitDy=0;entryX=0;entryY=0.5;entryDx=0;entryDy=0;endArrow=none;endFill=0;" edge="1" parent="1" source="5_YgtmY0Rdwz8p-4PcOd-2" target="5_YgtmY0Rdwz8p-4PcOd-6">
                    <mxGeometry relative="1" as="geometry"/>
                </mxCell>
                <mxCell id="5_YgtmY0Rdwz8p-4PcOd-17" value="&lt;font style=&quot;font-size: 8px;&quot;&gt;1&lt;/font&gt;" style="text;html=1;align=center;verticalAlign=middle;resizable=0;points=[];autosize=1;strokeColor=none;fillColor=none;" vertex="1" parent="1">
                    <mxGeometry x="212" y="139" width="30" height="30" as="geometry"/>
                </mxCell>
                <mxCell id="5_YgtmY0Rdwz8p-4PcOd-18" value="&lt;font style=&quot;font-size: 8px;&quot;&gt;0..*&lt;/font&gt;" style="text;html=1;align=center;verticalAlign=middle;resizable=0;points=[];autosize=1;strokeColor=none;fillColor=none;" vertex="1" parent="1">
                    <mxGeometry x="249" y="139" width="40" height="30" as="geometry"/>
                </mxCell>
                <mxCell id="5_YgtmY0Rdwz8p-4PcOd-21" style="edgeStyle=none;html=1;exitX=1;exitY=0.5;exitDx=0;exitDy=0;entryX=0;entryY=0.5;entryDx=0;entryDy=0;fontSize=8;endArrow=none;endFill=0;" edge="1" parent="1" source="5_YgtmY0Rdwz8p-4PcOd-6" target="5_YgtmY0Rdwz8p-4PcOd-10">
                    <mxGeometry relative="1" as="geometry"/>
                </mxCell>
                <mxCell id="5_YgtmY0Rdwz8p-4PcOd-22" value="&lt;font style=&quot;font-size: 8px;&quot;&gt;0..*&lt;/font&gt;" style="text;html=1;align=center;verticalAlign=middle;resizable=0;points=[];autosize=1;strokeColor=none;fillColor=none;" vertex="1" parent="1">
                    <mxGeometry x="410" y="139" width="40" height="30" as="geometry"/>
                </mxCell>
                <mxCell id="5_YgtmY0Rdwz8p-4PcOd-23" value="&lt;font style=&quot;font-size: 8px;&quot;&gt;1&lt;/font&gt;" style="text;html=1;align=center;verticalAlign=middle;resizable=0;points=[];autosize=1;strokeColor=none;fillColor=none;" vertex="1" parent="1">
                    <mxGeometry x="459" y="139" width="30" height="30" as="geometry"/>
                </mxCell>
                <mxCell id="5_YgtmY0Rdwz8p-4PcOd-25" value="&lt;font style=&quot;font-size: 8px;&quot;&gt;1&lt;/font&gt;" style="text;html=1;align=center;verticalAlign=middle;resizable=0;points=[];autosize=1;strokeColor=none;fillColor=none;" vertex="1" parent="1">
                    <mxGeometry x="339" y="257" width="30" height="30" as="geometry"/>
                </mxCell>
                <mxCell id="5_YgtmY0Rdwz8p-4PcOd-27" value="&lt;font style=&quot;font-size: 8px;&quot;&gt;0..*&lt;/font&gt;" style="text;html=1;align=center;verticalAlign=middle;resizable=0;points=[];autosize=1;strokeColor=none;fillColor=none;" vertex="1" parent="1">
                    <mxGeometry x="340" y="231" width="40" height="30" as="geometry"/>
                </mxCell>
                <mxCell id="5_YgtmY0Rdwz8p-4PcOd-28" style="edgeStyle=orthogonalEdgeStyle;html=1;exitX=1;exitY=0.5;exitDx=0;exitDy=0;entryX=0;entryY=0.221;entryDx=0;entryDy=0;entryPerimeter=0;fontSize=8;endArrow=none;endFill=0;curved=1;" edge="1" parent="1" source="5_YgtmY0Rdwz8p-4PcOd-10" target="5_YgtmY0Rdwz8p-4PcOd-12">
                    <mxGeometry relative="1" as="geometry"/>
                </mxCell>
                <mxCell id="5_YgtmY0Rdwz8p-4PcOd-29" value="&lt;font style=&quot;font-size: 8px;&quot;&gt;0..*&lt;/font&gt;" style="text;html=1;align=center;verticalAlign=middle;resizable=0;points=[];autosize=1;strokeColor=none;fillColor=none;" vertex="1" parent="1">
                    <mxGeometry x="648" y="99" width="40" height="30" as="geometry"/>
                </mxCell>
                <mxCell id="5_YgtmY0Rdwz8p-4PcOd-30" value="&lt;font style=&quot;font-size: 8px;&quot;&gt;0..*&lt;/font&gt;" style="text;html=1;align=center;verticalAlign=middle;resizable=0;points=[];autosize=1;strokeColor=none;fillColor=none;" vertex="1" parent="1">
                    <mxGeometry x="611" y="154" width="40" height="30" as="geometry"/>
                </mxCell>
                <mxCell id="5_YgtmY0Rdwz8p-4PcOd-31" style="edgeStyle=orthogonalEdgeStyle;curved=1;html=1;exitX=0;exitY=0.5;exitDx=0;exitDy=0;entryX=0.996;entryY=0.608;entryDx=0;entryDy=0;entryPerimeter=0;fontSize=8;endArrow=none;endFill=0;" edge="1" parent="1" source="5_YgtmY0Rdwz8p-4PcOd-14" target="5_YgtmY0Rdwz8p-4PcOd-10">
                    <mxGeometry relative="1" as="geometry"/>
                </mxCell>
                <mxCell id="5_YgtmY0Rdwz8p-4PcOd-32" value="&lt;font style=&quot;font-size: 8px;&quot;&gt;0..*&lt;/font&gt;" style="text;html=1;align=center;verticalAlign=middle;resizable=0;points=[];autosize=1;strokeColor=none;fillColor=none;" vertex="1" parent="1">
                    <mxGeometry x="649" y="375" width="40" height="30" as="geometry"/>
                </mxCell>
                <mxCell id="5_YgtmY0Rdwz8p-4PcOd-33" value="&lt;font style=&quot;font-size: 8px;&quot;&gt;0..*&lt;/font&gt;" style="text;html=1;align=center;verticalAlign=middle;resizable=0;points=[];autosize=1;strokeColor=none;fillColor=none;" vertex="1" parent="1">
                    <mxGeometry x="610" y="185" width="40" height="30" as="geometry"/>
                </mxCell>
            </root>
        </mxGraphModel>
    </diagram>
</mxfile>
